{"title":"Eye of the Hurricane 2012 WEBRip x264 DQ1","uid":7973233,"size":1308667245,"categoryP":"video","categoryS":"movies","magnet":"?xt=urn:btih:4d5c370993f2d77d3f09225396ab12a26a39b36a&amp;dn=Eye+of+the+Hurricane+2012+WEBRip+x264+DQ1&amp;tr=udp%3A%2F%2Ftracker.openbittorrent.com%3A80&amp;tr=udp%3A%2F%2Fopen.demonii.com%3A1337&amp;tr=udp%3A%2F%2Ftracker.coppersurfer.tk%3A6969&amp;tr=udp%3A%2F%2Fexodus.desync.com%3A6969","seeders":1,"leechers":1,"uploader":"juggs99","files":4,"time":1356915844,"description":" &lt;a href=&quot;http://img832.imageshack.us/img832/9118/mv5bmjaxmjy2mdc5mf5bml5.jpg&quot; rel=&quot;nofollow&quot; target=&quot;_NEW&quot;&gt;http://img832.imageshack.us/img832/9118/mv5bmjaxmjy2mdc5mf5bml5.jpg&lt;/a&gt;\n\n\nGeneral\n\nUnique ID                                : 235745039905472878064704272894122113760 (0xB15AD7D94C93023AB5F21DED60D5BAE0)\n\nComplete name                            : C:UsersrootDesktopEye of the Hurricane.2012.WEBRip.x264.DQ1Eye of the Hurricane.2012.WEBRip.x264.DQ1.mkv\n\nFormat                                   : Matroska\n\nFormat version                           : Version 4 / Version 2\n\nFile size                                : 1.19 GiB\n\nDuration                                 : 1h 44mn\n\nOverall bit rate                         : 1 624 Kbps\n\nEncoded date                             : UTC 2010-02-22 21:41:31\n\nWriting application                      : mkvmerge v5.9.0 ('On The Loose') built on Dec  9 2012 15:37:01\n\nWriting library                          : libebml v1.3.0 + libmatroska v1.4.0\n\n\n\nVideo\n\nID                                       : 1\n\nFormat                                   : AVC\n\nFormat/Info                              : Advanced Video Codec\n\nFormat profile                           : &lt;a class=&quot;__cf_email__&quot; href=&quot;/cdn-cgi/l/email-protection&quot; data-cfemail=&quot;bcfeddcfd9d0d5d2d9fcf08f928c&quot;&gt;[email&amp;#160;protected]&lt;/a&gt;&lt;script cf-hash='f9e31' type=&quot;text/javascript&quot;&gt;\n/* &lt;![CDATA[ */!function(){try{var t=&quot;currentScript&quot;in document?document.currentScript:function(){for(var t=document.getElementsByTagName(&quot;script&quot;),e=t.length;e--;)if(t[e].getAttribute(&quot;cf-hash&quot;))return t[e]}();if(t&amp;&amp;t.previousSibling){var e,r,n,i,c=t.previousSibling,a=c.getAttribute(&quot;data-cfemail&quot;);if(a){for(e=&quot;&quot;,r=parseInt(a.substr(0,2),16),n=2;a.length-n;n+=2)i=parseInt(a.substr(n,2),16)^r,e+=String.fromCharCode(i);e=document.createTextNode(e),c.parentNode.replaceChild(e,c)}}}catch(u){}}();/* ]]&gt; */&lt;/script&gt;\n\nFormat settings, CABAC                   : No\n\nFormat settings, ReFrames                : 3 frames\n\nMuxing mode                              : Container profile=&lt;a class=&quot;__cf_email__&quot; href=&quot;/cdn-cgi/l/email-protection&quot; data-cfemail=&quot;fca9929792938b92bcccd2cc&quot;&gt;[email&amp;#160;protected]&lt;/a&gt;&lt;script cf-hash='f9e31' type=&quot;text/javascript&quot;&gt;\n/* &lt;![CDATA[ */!function(){try{var t=&quot;currentScript&quot;in document?document.currentScript:function(){for(var t=document.getElementsByTagName(&quot;script&quot;),e=t.length;e--;)if(t[e].getAttribute(&quot;cf-hash&quot;))return t[e]}();if(t&amp;&amp;t.previousSibling){var e,r,n,i,c=t.previousSibling,a=c.getAttribute(&quot;data-cfemail&quot;);if(a){for(e=&quot;&quot;,r=parseInt(a.substr(0,2),16),n=2;a.length-n;n+=2)i=parseInt(a.substr(n,2),16)^r,e+=String.fromCharCode(i);e=document.createTextNode(e),c.parentNode.replaceChild(e,c)}}}catch(u){}}();/* ]]&gt; */&lt;/script&gt;\n\nCodec ID                                 : V_MPEG4/ISO/AVC\n\nDuration                                 : 1h 44mn\n\nBit rate                                 : 1 463 Kbps\n\nWidth                                    : 854 pixels\n\nHeight                                   : 354 pixels\n\nDisplay aspect ratio                     : 2.40:1\n\nFrame rate mode                          : Constant\n\nFrame rate                               : 23.976 fps\n\nColor space                              : YUV\n\nChroma subsampling                       : 4:2:0\n\nBit depth                                : 8 bits\n\nScan type                                : Progressive\n\nBits/(Pixel*Frame)                       : 0.202\n\nStream size                              : 1.07 GiB (90%)\n\nWriting library                          : x264 core 102\n\n\n\n\n\nAudio\n\nID                                       : 2\n\nFormat                                   : AC-3\n\nFormat/Info                              : Audio Coding 3\n\nMode extension                           : CM (complete main)\n\nFormat settings, Endianness              : Big\n\nCodec ID                                 : A_AC3\n\nDuration                                 : 1h 44mn\n\nBit rate mode                            : Constant\n\nBit rate                                 : 128 Kbps\n\nChannel(s)                               : 2 channels\n\nChannel positions                        : Front: L R\n\nSampling rate                            : 48.0 KHz\n\nBit depth                                : 16 bits\n\nCompression mode                         : Lossy\n\nStream size                              : 96.0 MiB (8%)\n\nDefault                                  : Yes\n\nForced                                   : No\n\n\n\nAn Everglades community struggles to put their lives back together in the wake of a hurricane. \n\n\n &lt;a href=&quot;\nhttp://www.shotpix.com/images/81068457050966874171.png&quot; rel=&quot;nofollow&quot; target=&quot;_NEW&quot;&gt;\nhttp://www.shotpix.com/images/81068457050966874171.png&lt;/a&gt; &lt;a href=&quot;\nhttp://www.shotpix.com/images/23871739949248649390.png&quot; rel=&quot;nofollow&quot; target=&quot;_NEW&quot;&gt;\nhttp://www.shotpix.com/images/23871739949248649390.png&lt;/a&gt; &lt;a href=&quot;\nhttp://www.shotpix.com/images/25267614994380581261.png&quot; rel=&quot;nofollow&quot; target=&quot;_NEW&quot;&gt;\nhttp://www.shotpix.com/images/25267614994380581261.png&lt;/a&gt;","torrent":{"xt":"urn:btih:4d5c370993f2d77d3f09225396ab12a26a39b36a","amp;dn":"Eye+of+the+Hurricane+2012+WEBRip+x264+DQ1","amp;tr":["udp%3A%2F%2Ftracker.openbittorrent.com%3A80","udp%3A%2F%2Fopen.demonii.com%3A1337","udp%3A%2F%2Ftracker.coppersurfer.tk%3A6969","udp%3A%2F%2Fexodus.desync.com%3A6969"],"infoHash":"4d5c370993f2d77d3f09225396ab12a26a39b36a","infoHashBuffer":{"type":"Buffer","data":[77,92,55,9,147,242,215,125,63,9,34,83,150,171,18,162,106,57,179,106]},"announce":[],"urlList":[]}}